
<svg id="Layer_1" height="48" viewBox="0 0 150 150" width="48" xmlns="http://www.w3.org/2000/svg" data-name="Layer 1"><path d="m63.09 37.87a25.22 25.22 0 1 0 25.21 25.21 25.21 25.21 0 0 0 -25.21-25.21" fill="#ebf0f3"/><path d="m83.56 48.37a25.21 25.21 0 0 1 -20.47 39.93 25.43 25.43 0 0 1 -5.42-.59 24.73 24.73 0 0 0 5.42.59 25.21 25.21 0 0 0 20.47-39.93" fill="#c2d2d7"/><path d="m63.09 37.88a24.83 24.83 0 0 0 -7 1 25.21 25.21 0 0 1 0 48.46 25.2 25.2 0 0 1 -18.21-24.25 25.2 25.2 0 0 0 18.26 24.23q.75.23 1.53.39a25.21 25.21 0 0 0 30.63-24.63 25.2 25.2 0 0 0 -25.21-25.2" fill="#d2e5e9"/><path d="m56.14 38.86a25.21 25.21 0 0 0 0 48.46 25.21 25.21 0 0 0 0-48.46" fill="#c0dde2"/><path d="m82.57 80.24h4.87v9.54h-4.87z" fill="#2f4859" transform="matrix(.707 -.707 .707 .707 -35.21 85.01)"/><path d="m43.2 43.2a28.12 28.12 0 1 0 39.8 0 28.13 28.13 0 0 0 -39.8 0zm36.16 36.16a23 23 0 1 1 0-32.55 23 23 0 0 1 0 32.55z" fill="#3a556a"/><path d="m94.54 80.19h8.08a2 2 0 0 1 2 2v32.71a2 2 0 0 1 -2 2h-8.08a2 2 0 0 1 -2-2v-32.67a2 2 0 0 1 2-2.04z" fill="#3a556a" transform="matrix(.707 -.707 .707 .707 -40.83 98.58)"/><path d="m114.44 108.73-5.71 5.71a2 2 0 0 1 -2.89 0l-23.12-23.12a2 2 0 0 1 0-2.89l.24-.24a1.91 1.91 0 0 0 .47.75l23.12 23.13a2 2 0 0 0 2.87 0l5.49-5.48a2 2 0 0 1 -.47 2.14z" fill="#2f4859"/></svg>